<svg width="18" height="18" viewBox="0 0 18 18" fill="none" xmlns="http://www.w3.org/2000/svg">
<path opacity="0.9" fill-rule="evenodd" clip-rule="evenodd" d="M9 0.975586C4.029 0.975586 0 4.10558 0 7.96458C0.063509 9.19501 0.463823 10.3843 1.15723 11.4028C1.85063 12.4212 2.81048 13.2295 3.93201 13.7396L2.93201 17.4066C2.914 17.4788 2.91832 17.5548 2.9444 17.6245C2.97048 17.6942 3.01708 17.7544 3.07806 17.7971C3.13905 17.8398 3.21157 17.863 3.28601 17.8636C3.36045 17.8642 3.4333 17.8422 3.495 17.8006L7.87201 14.9006C8.24201 14.9366 8.61702 14.9576 8.99902 14.9576C13.969 14.9576 17.999 11.8286 17.999 7.96858C17.999 4.10858 13.969 0.979584 8.99902 0.979584" fill="black"/>
</svg>
