<svg width="62" height="24" viewBox="0 0 62 24" fill="none" xmlns="http://www.w3.org/2000/svg">
<path d="M6.27271 15.4187C6.27271 13.9309 6.48966 12.5298 6.92358 11.2152C7.36759 9.8905 7.95793 8.67277 8.69458 7.56203C9.44132 6.44111 10.2991 5.43737 11.2678 4.55082C12.2467 3.66427 13.2659 2.91529 14.3254 2.30388C15.3951 1.68228 16.4749 1.20843 17.5647 0.882345C18.6646 0.546068 19.7091 0.37793 20.698 0.37793C21.5759 0.37793 22.4084 0.479832 23.1956 0.683636C23.9928 0.887441 24.6991 1.19824 25.3147 1.61604C25.9403 2.03384 26.46 2.56373 26.8738 3.20571C27.2875 3.83751 27.565 4.58139 27.7063 5.43737C27.7164 5.48832 27.7214 5.53418 27.7214 5.57494C27.7214 5.6157 27.7214 5.66156 27.7214 5.71251C27.7214 6.10993 27.6054 6.41563 27.3733 6.62963C27.1513 6.83343 26.9091 6.93533 26.6467 6.93533C26.3541 6.93533 26.0816 6.77739 25.8293 6.46149C25.5771 6.14559 25.3349 5.69722 25.1028 5.11638C24.7294 4.40307 24.1895 3.88336 23.4832 3.55728C22.7768 3.23119 21.9796 3.06815 21.0916 3.06815C20.3145 3.06815 19.4972 3.21081 18.6394 3.49614C17.7917 3.78146 16.9491 4.18398 16.1116 4.70368C15.2841 5.22338 14.4919 5.85008 13.7351 6.58377C12.9783 7.30728 12.3123 8.1123 11.7371 8.99885C11.1619 9.87521 10.7027 10.8229 10.3596 11.8419C10.0266 12.8609 9.86011 13.9156 9.86011 15.006C9.86011 15.9129 9.97111 16.6772 10.1931 17.2988C10.4151 17.9204 10.7078 18.4248 11.071 18.812C11.4343 19.1993 11.843 19.4795 12.2971 19.6527C12.7512 19.826 13.2104 19.9126 13.6746 19.9126C14.7139 19.9126 15.7029 19.6273 16.6414 19.0566C17.5899 18.4859 18.4224 17.6707 19.1389 16.6109C19.8554 15.541 20.4255 14.2417 20.8494 12.7132C21.2732 11.1745 21.4851 9.44213 21.4851 7.51618C21.4851 7.32256 21.4801 7.13404 21.47 6.95062C21.47 6.75701 21.47 6.5583 21.47 6.35449C21.47 5.84498 21.5608 5.47304 21.7424 5.23866C21.9241 4.9941 22.1309 4.87182 22.363 4.87182C22.7566 4.87182 23.0745 4.98391 23.3166 5.20809C23.5689 5.42209 23.7657 5.71251 23.907 6.07936C24.0483 6.43601 24.1441 6.84872 24.1946 7.31747C24.2551 7.77603 24.2854 8.24987 24.2854 8.739C24.2854 10.1249 24.1391 11.4343 23.8464 12.6673C23.5538 13.8902 23.1451 15.0264 22.6204 16.076C22.1057 17.1154 21.4902 18.0529 20.7737 18.8885C20.0673 19.7139 19.3004 20.417 18.4729 20.9978C17.6454 21.5685 16.7725 22.0118 15.8542 22.3277C14.946 22.6334 14.0278 22.7862 13.0994 22.7862C12.2416 22.7862 11.4041 22.6639 10.5867 22.4194C9.76929 22.1646 9.03768 21.7519 8.39185 21.1813C7.7561 20.6004 7.24146 19.8412 6.8479 18.9037C6.46444 17.9561 6.27271 16.7944 6.27271 15.4187Z" fill="#2F2F2F"/>
<path d="M27.8072 18.0172C27.6962 18.2516 27.5852 18.5267 27.4742 18.8426C27.3733 19.1483 27.3228 19.4234 27.3228 19.668C27.3228 19.8209 27.3531 19.9431 27.4137 20.0349C27.4742 20.1266 27.5902 20.1724 27.7618 20.1724C27.9737 20.1724 28.2361 20.1113 28.5489 19.989C28.8718 19.8565 29.2149 19.6884 29.5782 19.4846C29.9516 19.2706 30.335 19.0311 30.7286 18.7662C31.1322 18.491 31.5308 18.2108 31.9244 17.9255C32.318 17.63 32.6913 17.3395 33.0445 17.0542C33.4078 16.7587 33.7307 16.4887 34.0133 16.2441C34.094 16.1728 34.1899 16.1218 34.3009 16.0912C34.4119 16.0607 34.5077 16.0454 34.5885 16.0454C34.7903 16.0454 34.9568 16.1167 35.088 16.2594C35.2192 16.402 35.2847 16.5906 35.2847 16.8249C35.2847 17.0389 35.2141 17.2784 35.0728 17.5434C34.9316 17.8083 34.6843 18.0681 34.3311 18.3229C33.6853 18.9241 33.0344 19.4948 32.3785 20.0349C31.7226 20.5749 31.0666 21.0539 30.4107 21.4717C29.7649 21.8793 29.1191 22.2054 28.4732 22.4499C27.8375 22.6945 27.2169 22.8168 26.6114 22.8168C26.1977 22.8168 25.8495 22.7607 25.567 22.6486C25.2945 22.5366 25.0725 22.3837 24.901 22.1901C24.7395 21.9965 24.6235 21.7672 24.5528 21.5023C24.4822 21.2373 24.4469 20.9571 24.4469 20.6616C24.4469 20.1622 24.5175 19.6527 24.6588 19.133C24.8101 18.6031 24.9867 18.1191 25.1886 17.6809C25.5417 16.8861 25.9 16.0963 26.2633 15.3117C26.6265 14.527 26.9596 13.8086 27.2623 13.1565L31.8487 3.29743C32.0304 2.90001 32.2725 2.61978 32.5753 2.45673C32.8881 2.29369 33.2009 2.21217 33.5138 2.21217C33.8266 2.21217 34.1091 2.29879 34.3614 2.47202C34.6238 2.64525 34.755 2.92548 34.755 3.31271C34.755 3.49614 34.7096 3.68975 34.6187 3.89355C34.538 4.09736 34.432 4.31645 34.3009 4.55082C34.0486 5.02976 33.7458 5.6157 33.3927 6.30864C33.0496 7.00157 32.6762 7.75565 32.2725 8.57086C31.879 9.38608 31.4703 10.237 31.0465 11.1235C30.6327 11.9999 30.224 12.8559 29.8204 13.6914C29.4268 14.527 29.0535 15.3219 28.7003 16.076C28.3572 16.8198 28.0595 17.4669 27.8072 18.0172Z" fill="#2F2F2F"/>
<path d="M37.5502 9.21285C37.5502 8.97847 37.5906 8.739 37.6713 8.49444C37.7621 8.23968 37.8933 8.0104 38.0649 7.8066C38.2364 7.60279 38.4483 7.43466 38.7006 7.30218C38.963 7.16971 39.2708 7.10347 39.6239 7.10347C40.2092 7.10347 40.6179 7.22066 40.85 7.45504C41.0821 7.67922 41.1982 7.96455 41.1982 8.31101C41.1982 8.50463 41.1578 8.71862 41.0771 8.953C41.0064 9.18737 40.8954 9.40646 40.7441 9.61027C40.5927 9.80388 40.3959 9.96692 40.1537 10.0994C39.9115 10.2319 39.6239 10.2981 39.2909 10.2981C38.6653 10.2981 38.2263 10.2013 37.974 10.0077C37.7218 9.80388 37.5805 9.53894 37.5502 9.21285ZM35.8852 12.652C36.0567 12.3667 36.2535 12.1629 36.4755 12.0406C36.6975 11.9184 36.9246 11.8572 37.1567 11.8572C37.5401 11.8572 37.8681 11.9846 38.1405 12.2393C38.4231 12.4839 38.5644 12.7998 38.5644 13.187C38.5543 13.2787 38.5391 13.3705 38.519 13.4622C38.5089 13.5539 38.4786 13.6456 38.4281 13.7373C38.2869 14.0023 38.1708 14.2264 38.08 14.4099C37.9892 14.5933 37.9034 14.7665 37.8227 14.9296C37.752 15.0824 37.6814 15.2353 37.6108 15.3881C37.5401 15.541 37.4543 15.7244 37.3534 15.9384C37.2323 16.1931 37.0961 16.4734 36.9447 16.7791C36.7934 17.0746 36.6471 17.3803 36.5058 17.6962C36.3746 18.0121 36.2585 18.3229 36.1576 18.6286C36.0668 18.9343 36.0214 19.2145 36.0214 19.4693C36.0214 19.7444 36.087 19.9279 36.2182 20.0196C36.3595 20.1011 36.5562 20.1419 36.8085 20.1419C37.0911 20.1419 37.3837 20.0807 37.6864 19.9584C37.9993 19.8361 38.3121 19.6782 38.6249 19.4846C38.9377 19.291 39.2455 19.0719 39.5483 18.8273C39.851 18.5726 40.1335 18.3178 40.3959 18.0631C40.6684 17.8083 40.9156 17.5637 41.1376 17.3294C41.3697 17.095 41.5614 16.8861 41.7128 16.7027C41.9146 16.509 42.1165 16.4122 42.3183 16.4122C42.4999 16.4122 42.6462 16.4938 42.7572 16.6568C42.8783 16.8198 42.9389 17.0287 42.9389 17.2835C42.9389 17.5179 42.8783 17.7675 42.7572 18.0325C42.6462 18.2974 42.4596 18.5471 42.1972 18.7815C41.6825 19.3114 41.1578 19.8209 40.623 20.31C40.0881 20.7889 39.5382 21.2169 38.9731 21.594C38.418 21.9608 37.858 22.2563 37.2929 22.4805C36.7278 22.7047 36.1576 22.8168 35.5824 22.8168C34.7651 22.8168 34.1192 22.6079 33.6449 22.1901C33.1807 21.7621 32.9486 21.0997 32.9486 20.203C32.9486 19.7342 33.0142 19.2757 33.1454 18.8273C33.2766 18.3789 33.433 17.9459 33.6147 17.5281C33.7963 17.1001 33.988 16.6925 34.1899 16.3052C34.3917 15.9078 34.5632 15.5308 34.7045 15.1741C34.755 15.0417 34.8407 14.8378 34.9618 14.5627C35.093 14.2876 35.2292 14.0073 35.3705 13.722C35.532 13.3857 35.7035 13.0291 35.8852 12.652Z" fill="#2F2F2F"/>
<path d="M44.2356 13.1565C44.4374 12.7183 44.6897 12.3922 44.9924 12.1782C45.2952 11.9642 45.5929 11.8572 45.8855 11.8572C46.1277 11.8572 46.3446 11.9489 46.5364 12.1323C46.7281 12.3056 46.824 12.5654 46.824 12.9119C46.824 13.0444 46.8088 13.187 46.7786 13.3399C46.7483 13.4927 46.6928 13.6558 46.6121 13.829C46.8341 13.5437 47.1519 13.2533 47.5657 12.9578C47.9794 12.652 48.4335 12.382 48.928 12.1476C49.4325 11.9031 49.9472 11.7044 50.4719 11.5515C51.0068 11.3986 51.5113 11.3222 51.9856 11.3222C52.5204 11.3222 52.9644 11.4547 53.3176 11.7196C53.6809 11.9744 53.8625 12.4126 53.8625 13.0342C53.8625 13.401 53.807 13.7832 53.696 14.1806C53.585 14.578 53.4387 14.9754 53.2571 15.3728C53.0855 15.7703 52.8888 16.1626 52.6667 16.5498C52.4548 16.9268 52.2429 17.2835 52.031 17.6198C51.8191 17.9561 51.6223 18.2669 51.4407 18.5522C51.2691 18.8273 51.1329 19.0566 51.032 19.24C50.9008 19.4031 50.8352 19.5916 50.8352 19.8056C50.8352 19.8871 50.8604 19.9584 50.9109 20.0196C50.9613 20.0807 51.0421 20.1113 51.1531 20.1113C51.2237 20.1113 51.3044 20.1062 51.3953 20.096C51.4861 20.0756 51.5971 20.0196 51.7283 19.9279C52.2732 19.7241 52.8282 19.4693 53.3933 19.1636C53.9685 18.8579 54.5185 18.5369 55.0432 18.2006C55.568 17.8542 56.0473 17.5128 56.4812 17.1765C56.9252 16.83 57.2935 16.5192 57.5862 16.2441C57.6669 16.1728 57.7476 16.1218 57.8284 16.0912C57.9091 16.0607 57.9848 16.0454 58.0554 16.0454C58.227 16.0454 58.3582 16.1116 58.449 16.2441C58.5499 16.3766 58.6003 16.5447 58.6003 16.7485C58.6003 17.0644 58.4994 17.416 58.2976 17.8032C58.1059 18.1904 57.7981 18.5522 57.3743 18.8885C56.7991 19.3063 56.2693 19.6884 55.7849 20.0349C55.3106 20.3813 54.8212 20.7074 54.3166 21.0131C53.8222 21.3086 53.2874 21.5889 52.7122 21.8538C52.1471 22.1086 51.481 22.348 50.7141 22.5722C50.4517 22.6537 50.2096 22.7149 49.9875 22.7556C49.7756 22.7964 49.5789 22.8168 49.3972 22.8168C48.8624 22.8168 48.4688 22.669 48.2166 22.3735C47.9744 22.0678 47.8533 21.6449 47.8533 21.1048C47.8533 21.0335 47.8533 20.9673 47.8533 20.9061C47.8634 20.8348 47.8735 20.7584 47.8835 20.6768C47.9037 20.3609 47.9845 20.0145 48.1257 19.6374C48.2771 19.2604 48.4537 18.8732 48.6555 18.4758C48.8674 18.0783 49.0894 17.686 49.3215 17.2988C49.5536 16.9014 49.7655 16.5294 49.9573 16.183C50.1591 15.8263 50.3256 15.5104 50.4568 15.2353C50.588 14.9601 50.6536 14.7359 50.6536 14.5627C50.6536 14.4099 50.6082 14.2825 50.5173 14.1806C50.4366 14.0685 50.3105 14.0124 50.1389 14.0124C49.4931 14.0124 48.8775 14.2061 48.2922 14.5933C47.717 14.9805 47.1772 15.4595 46.6726 16.0301C46.168 16.5906 45.7039 17.1867 45.28 17.8185C44.8562 18.4503 44.4828 19.0158 44.1599 19.5152C43.9581 19.8514 43.7714 20.2132 43.5999 20.6004C43.4384 20.9775 43.2668 21.3341 43.0852 21.6704C42.9036 21.9965 42.6967 22.2665 42.4646 22.4805C42.2426 22.7047 41.96 22.8168 41.6169 22.8168C41.2638 22.8168 40.9862 22.7047 40.7844 22.4805C40.5826 22.2563 40.4817 21.9812 40.4817 21.6551C40.4817 21.4819 40.5523 21.2016 40.6936 20.8144C40.8349 20.4272 41.0165 19.9788 41.2385 19.4693C41.4605 18.9598 41.7078 18.4146 41.9802 17.8338C42.2628 17.2427 42.5403 16.6619 42.8127 16.0912C43.0953 15.5104 43.3627 14.9652 43.615 14.4557C43.8673 13.9462 44.0741 13.5131 44.2356 13.1565Z" fill="#2F2F2F"/>
</svg>
